<svg width="204" height="204" viewBox="0 0 204 204" fill="none" xmlns="http://www.w3.org/2000/svg">
<g clip-path="url(#clip0_2_4157)">
<path d="M187.639 69.9021C193.092 67.8586 199.226 70.6143 200.696 76.2484C206.238 97.4863 204.802 120.051 196.436 140.546C186.737 164.31 168.435 183.543 145.182 194.409C121.928 205.275 95.4333 206.975 70.9821 199.169C46.5309 191.364 25.9211 174.628 13.2642 152.299C0.607315 129.97 -3.16619 103.69 2.69649 78.7016C8.55917 53.7134 23.627 31.854 44.8941 17.4841C66.1612 3.11434 92.0641 -2.70945 117.435 1.17459C139.317 4.52439 159.415 14.8827 174.791 30.5466C178.869 34.702 178.083 41.3804 173.529 45.0089C168.975 48.6373 162.385 47.8271 158.195 43.7831C146.212 32.2155 130.877 24.5642 114.244 22.0179C94.1181 18.9368 73.5701 23.5565 56.6994 34.9557C39.8288 46.3549 27.8758 63.6954 23.2251 83.518C18.5744 103.34 21.5679 124.188 31.6082 141.901C41.6486 159.614 57.9979 172.89 77.3943 179.082C96.7908 185.274 117.809 183.925 136.255 175.305C154.701 166.686 169.219 151.429 176.914 132.578C183.273 116.999 184.584 99.9117 180.815 83.688C179.497 78.0164 182.187 71.9457 187.639 69.9021Z" fill="url(#paint0_linear_2_4157)"/>
<path d="M62.764 110.32V105.352L74.14 89.08H81.016V104.992H83.968V110.32H81.016V115H74.86V110.32H62.764ZM75.292 95.848L69.244 104.992H75.292V95.848ZM86.2633 101.5C86.2633 97.372 87.0553 94.12 88.6393 91.744C90.2473 89.368 92.8273 88.18 96.3793 88.18C99.9313 88.18 102.499 89.368 104.083 91.744C105.691 94.12 106.495 97.372 106.495 101.5C106.495 105.676 105.691 108.952 104.083 111.328C102.499 113.704 99.9313 114.892 96.3793 114.892C92.8273 114.892 90.2473 113.704 88.6393 111.328C87.0553 108.952 86.2633 105.676 86.2633 101.5ZM100.447 101.5C100.447 99.076 100.183 97.216 99.6553 95.92C99.1273 94.6 98.0353 93.94 96.3793 93.94C94.7233 93.94 93.6313 94.6 93.1033 95.92C92.5753 97.216 92.3113 99.076 92.3113 101.5C92.3113 103.132 92.4073 104.488 92.5993 105.568C92.7913 106.624 93.1753 107.488 93.7513 108.16C94.3513 108.808 95.2273 109.132 96.3793 109.132C97.5313 109.132 98.3953 108.808 98.9713 108.16C99.5713 107.488 99.9673 106.624 100.159 105.568C100.351 104.488 100.447 103.132 100.447 101.5ZM108.524 95.344C108.524 93.4 109.076 91.9 110.18 90.844C111.308 89.788 112.76 89.26 114.536 89.26C116.312 89.26 117.752 89.788 118.856 90.844C119.96 91.9 120.512 93.4 120.512 95.344C120.512 97.288 119.96 98.788 118.856 99.844C117.752 100.9 116.312 101.428 114.536 101.428C112.76 101.428 111.308 100.9 110.18 99.844C109.076 98.788 108.524 97.288 108.524 95.344ZM132.968 89.656L119.108 115H113.168L127.028 89.656H132.968ZM114.5 92.86C113.348 92.86 112.772 93.688 112.772 95.344C112.772 96.976 113.348 97.792 114.5 97.792C115.052 97.792 115.484 97.588 115.796 97.18C116.108 96.772 116.264 96.16 116.264 95.344C116.264 93.688 115.676 92.86 114.5 92.86ZM125.66 109.312C125.66 107.368 126.212 105.868 127.316 104.812C128.42 103.756 129.86 103.228 131.636 103.228C133.412 103.228 134.852 103.756 135.956 104.812C137.06 105.868 137.612 107.368 137.612 109.312C137.612 111.256 137.06 112.756 135.956 113.812C134.852 114.868 133.412 115.396 131.636 115.396C129.86 115.396 128.42 114.868 127.316 113.812C126.212 112.756 125.66 111.256 125.66 109.312ZM131.6 106.828C131.048 106.828 130.616 107.032 130.304 107.44C130.016 107.848 129.872 108.472 129.872 109.312C129.872 110.944 130.448 111.76 131.6 111.76C132.152 111.76 132.584 111.556 132.896 111.148C133.208 110.74 133.364 110.128 133.364 109.312C133.364 108.496 133.208 107.884 132.896 107.476C132.584 107.044 132.152 106.828 131.6 106.828Z" fill="white"/>
</g>
<defs>
<linearGradient id="paint0_linear_2_4157" x1="-12.4348" y1="91.2144" x2="228.124" y2="92.0979" gradientUnits="userSpaceOnUse">
<stop stop-color="#AA367C"/>
<stop offset="1" stop-color="#4A2FBD"/>
</linearGradient>
<clipPath id="clip0_2_4157">
<rect width="204" height="204" fill="white"/>
</clipPath>
</defs>
</svg>
